<svg width="24" height="24" viewBox="0 0 24 24" fill="none" xmlns="http://www.w3.org/2000/svg">
<g clip-path="url(#clip0)">
<path d="M9.98598 0.923096C8.19352 0.923096 6.4413 1.45462 4.95092 2.45047C3.46053 3.44631 2.29892 4.86174 1.61297 6.51776C0.927022 8.17379 0.747547 9.99603 1.09724 11.7541C1.44693 13.5121 2.31009 15.1269 3.57756 16.3944C4.84502 17.6619 6.45988 18.525 8.2179 18.8747C9.97593 19.2244 11.7982 19.0449 13.4542 18.359C15.1102 17.673 16.5257 16.5114 17.5215 15.021C18.5173 13.5307 19.0489 11.7784 19.0489 9.98598C19.0487 7.5824 18.0938 5.27731 16.3942 3.57772C14.6947 1.87813 12.3896 0.923249 9.98598 0.923096V0.923096Z" stroke="#EAEAEA" stroke-width="2.30769" stroke-miterlimit="10"/>
<path d="M16.7475 16.7475L23.0769 23.0769" stroke="#EAEAEA" stroke-width="2.30769" stroke-miterlimit="10" stroke-linecap="round"/>
</g>
<defs>
<clipPath id="clip0">
<rect width="24" height="24" fill="white"/>
</clipPath>
</defs>
</svg>
